<?xml version="1.0" ?><!DOCTYPE svg  PUBLIC '-//W3C//DTD SVG 1.1//EN'  'http://www.w3.org/Graphics/SVG/1.1/DTD/svg11.dtd'><svg height="32px" style="fill-rule:evenodd;clip-rule:evenodd;stroke-linejoin:round;stroke-miterlimit:2;" fill="#8B8000" version="1.1" width="32px" xml:space="preserve" xmlns="http://www.w3.org/2000/svg" xmlns:serif="http://www.serif.com/" xmlns:xlink="http://www.w3.org/1999/xlink"><path d="M18,13l-4,0c-0,-0 -0,-1 -0,-1c0,-0.758 -0.428,-1.45 -1.106,-1.789c-0.677,-0.339 -1.488,-0.266 -2.094,0.189c-1.585,1.188 -3.966,2.975 -5.333,4c-0.504,0.378 -0.8,0.97 -0.8,1.6c-0,0.63 0.296,1.222 0.8,1.6c1.367,1.025 3.748,2.812 5.333,4c0.606,0.455 1.417,0.528 2.094,0.189c0.678,-0.339 1.106,-1.031 1.106,-1.789c0,-0 0,-1 0,-1c0,-0 4,-0 4,-0c-0,0 -0,1 -0,1c-0,0.758 0.428,1.45 1.106,1.789c0.677,0.339 1.488,0.266 2.094,-0.189c1.585,-1.188 3.966,-2.975 5.333,-4c0.504,-0.378 0.8,-0.97 0.8,-1.6c0,-0.63 -0.296,-1.222 -0.8,-1.6c-1.367,-1.025 -3.748,-2.812 -5.333,-4c-0.606,-0.455 -1.417,-0.528 -2.094,-0.189c-0.678,0.339 -1.106,1.031 -1.106,1.789l-0,1Zm2,-1c0,-0 5.333,4 5.333,4c0,0 -5.333,4.002 -5.333,4l-0,-2c-0,-0.552 -0.448,-1 -1,-1l-6,0c-0.552,0 -1,0.448 -1,1l0,2c-0,0 -5.333,-4 -5.333,-4c-0,-0 5.335,-4 5.333,-4l-0,2c-0,0.552 0.448,1 1,1c-0,0 6,0 6,0c0.552,0 1,-0.448 1,-1l-0,-2Z" id="_28-Opposite"/></svg>